HIERARCHY
ROOT Hips
{
    OFFSET 0.000000 0.000000 0.000000
    CHANNELS 6 Xposition Yposition Zposition Zrotation Xrotation Yrotation
    JOINT Spine
    {
        OFFSET -0.000000 14.517291 0.000000
        CHANNELS 3 Zrotation Xrotation Yrotation
        JOINT Spine1
        {
            OFFSET -0.000000 37.558300 0.000000
            CHANNELS 3 Zrotation Xrotation Yrotation
            JOINT Neck
            {
                OFFSET -0.000000 37.404057 3.400369
                CHANNELS 3 Zrotation Xrotation Yrotation
                JOINT Head
                {
                    OFFSET -0.000000 24.785618 -3.540803
                    CHANNELS 3 Zrotation Xrotation Yrotation
                    End Site
                    {
                        OFFSET -0.000000 35.408028 0.000000
                    }
                }
            }
            JOINT LeftShoulder
            {
                OFFSET 6.992933 33.973492 -0.192664
                CHANNELS 3 Zrotation Xrotation Yrotation
                JOINT LeftArm
                {
                    OFFSET 21.527611 0.000000 0.000000
                    CHANNELS 3 Zrotation Xrotation Yrotation
                    JOINT LeftForeArm
                    {
                        OFFSET 56.353916 0.000000 0.000000
                        CHANNELS 3 Zrotation Xrotation Yrotation
                        JOINT LeftHand
                        {
                            OFFSET 47.774071 0.000000 0.000000
                            CHANNELS 3 Zrotation Xrotation Yrotation
                            End Site
                            {
                                OFFSET 26.556021 0.000000 0.000000
                            }
                        }
                    }
                }
            }
            JOINT RightShoulder
            {
                OFFSET -7.065357 33.973492 -0.192664
                CHANNELS 3 Zrotation Xrotation Yrotation
                JOINT RightArm
                {
                    OFFSET -21.527611 0.000000 0.000000
                    CHANNELS 3 Zrotation Xrotation Yrotation
                    JOINT RightForeArm
                    {
                        OFFSET -56.353916 0.000000 0.000000
                        CHANNELS 3 Zrotation Xrotation Yrotation
                        JOINT RightHand
                        {
                            OFFSET -47.774071 0.000000 0.000000
                            CHANNELS 3 Zrotation Xrotation Yrotation
                            End Site
                            {
                                OFFSET -26.556021 0.000000 0.000000
                            }
                        }
                    }
                }
            }
        }
    }
    JOINT LeftUpLeg
    {
        OFFSET 17.704014 0.000000 0.000000
        CHANNELS 3 Zrotation Xrotation Yrotation
        JOINT LeftLeg
        {
            OFFSET -0.000000 -81.181816 0.000000
            CHANNELS 3 Zrotation Xrotation Yrotation
            JOINT LeftFoot
            {
                OFFSET -0.000000 -62.821102 0.000000
                CHANNELS 3 Zrotation Xrotation Yrotation
                JOINT LeftToeBase
                {
                    OFFSET -0.000000 -11.507608 26.556021
                    CHANNELS 3 Zrotation Xrotation Yrotation
                    End Site
                    {
                        OFFSET -0.000000 0.000000 7.081605
                    }
                }
            }
        }
    }
    JOINT RightUpLeg
    {
        OFFSET -17.704014 0.000000 0.000000
        CHANNELS 3 Zrotation Xrotation Yrotation
        JOINT RightLeg
        {
            OFFSET -0.000000 -81.181816 0.000000
            CHANNELS 3 Zrotation Xrotation Yrotation
            JOINT RightFoot
            {
                OFFSET -0.000000 -62.821102 0.000000
                CHANNELS 3 Zrotation Xrotation Yrotation
                JOINT RightToeBase
                {
                    OFFSET -0.000000 -11.507608 26.556021
                    CHANNELS 3 Zrotation Xrotation Yrotation
                    End Site
                    {
                        OFFSET -0.000000 0.000000 7.081605
                    }
                }
            }
        }
    }
}
MOTION
Frames:    10
Frame Time:    0.008333
16.478758    154.890961    -109.161423    -0.653138    -9.214332    45.761116    -3.351543    1.985314    -1.778798    -2.814439    2.632576    -0.548062    2.192852    8.494306    -19.531448    19.519491    -2.204468    -17.453915    3.385523    8.061657    -17.710836    -24.254927    8.916216    -49.090443    15.881326    -36.365688    -51.584854    -0.913710    -29.765047    -18.359558    -0.933047    6.027536    -5.635778    32.360683    -12.731903    50.250504    -26.877485    -15.356417    64.651939    -13.055490    -2.421719    36.614166    19.668945    -6.544802    -2.153929    -16.108154    40.695374    -16.886433    8.113983    -27.486639    43.302898    0.000000    0.000000    0.000000    -17.772350    -14.049121    -15.281509    13.411458    30.527208    -15.975158    12.594259    4.971541    -19.926260    0.000000    0.000000    0.000000    
16.491091    154.902435    -109.151962    -0.654373    -9.216017    45.747875    -3.363498    1.976125    -1.785375    -2.807678    2.643913    -0.550226    2.199121    8.471615    -19.523836    19.519875    -2.175749    -17.451580    3.425812    8.110407    -17.765810    -24.268354    9.137885    -49.382629    15.267483    -36.372952    -52.536942    -1.372081    -29.833288    -18.450144    -0.915996    6.035672    -5.629206    32.385250    -12.737935    50.284554    -26.859676    -15.342779    64.660263    -13.070000    -2.421617    36.613338    19.663401    -6.519916    -2.158079    -16.100224    40.661755    -16.874390    8.117323    -27.477306    43.309326    0.000000    0.000000    0.000000    -17.765135    -14.035776    -15.289264    13.399485    30.506123    -15.970394    12.590075    4.984796    -19.909203    0.000000    0.000000    0.000000    
16.505430    154.913361    -109.139145    -0.658040    -9.215144    45.737335    -3.384425    1.963401    -1.793017    -2.769621    2.649405    -0.553483    2.176371    8.451180    -19.526939    19.515320    -2.126515    -17.462633    3.441086    8.180337    -17.808449    -24.262850    9.317264    -49.692905    14.969779    -35.926525    -53.234989    -1.712304    -29.332169    -18.666031    -0.923094    6.044339    -5.628453    32.406334    -12.724873    50.317184    -26.859289    -15.342232    64.662605    -13.083621    -2.425871    36.619526    19.657623    -6.499200    -2.159122    -16.078907    40.638912    -16.880857    8.110514    -27.470675    43.300991    0.000000    0.000000    0.000000    -17.760799    -14.017045    -15.306027    13.393341    30.474934    -15.958526    12.577975    5.001773    -19.892231    0.000000    0.000000    0.000000    
16.523569    154.927200    -109.128487    -0.651485    -9.215594    45.729763    -3.403309    1.956195    -1.807795    -2.752705    2.661090    -0.558591    2.168315    8.436521    -19.524017    19.521946    -2.096516    -17.463293    3.468895    8.230776    -17.859430    -24.282362    9.514511    -49.988838    14.616061    -35.543377    -54.029510    -1.767740    -28.956905    -18.729872    -0.910024    6.050816    -5.611094    32.412472    -12.724823    50.334599    -26.851286    -15.330956    64.668320    -13.063117    -2.410413    36.615620    19.642677    -6.468029    -2.168049    -16.068666    40.602425    -16.862906    8.112874    -27.463226    43.304947    0.000000    0.000000    0.000000    -17.765421    -13.992054    -15.338562    13.381527    30.452581    -15.933499    12.581696    5.011409    -19.884840    0.000000    0.000000    0.000000    
16.536030    154.939957    -109.117867    -0.656734    -9.217404    45.713684    -3.406471    1.948849    -1.810016    -2.744530    2.662862    -0.559395    2.155073    8.408473    -19.518497    19.530197    -2.046359    -17.464239    3.496371    8.268957    -17.921860    -24.318060    9.673657    -50.262333    14.091948    -35.114555    -54.951393    -1.591040    -28.634333    -18.690044    -0.904873    6.060794    -5.611722    32.447121    -12.733088    50.367374    -26.821449    -15.305565    64.684380    -13.099202    -2.407789    36.589809    19.639624    -6.447331    -2.181281    -16.059610    40.576271    -16.856398    8.097015    -27.467201    43.309368    0.000000    0.000000    0.000000    -17.752411    -13.977542    -15.371941    13.349072    30.428532    -15.910072    12.582243    5.036797    -19.851929    0.000000    0.000000    0.000000    
16.555166    154.950027    -109.106232    -0.654262    -9.220989    45.703548    -3.413583    1.943392    -1.821585    -2.733663    2.670424    -0.563311    2.133811    8.412328    -19.518167    19.558155    -2.038126    -17.459265    3.528325    8.309137    -17.976860    -24.337502    9.880583    -50.558659    13.703329    -34.744965    -55.801491    -1.627408    -28.299849    -18.600218    -0.891707    6.054502    -5.597721    32.442757    -12.711509    50.375263    -26.818386    -15.312946    64.681282    -13.067469    -2.408759    36.596024    19.629763    -6.422662    -2.186082    -16.045084    40.559021    -16.852716    8.103488    -27.462004    43.315662    0.000000    0.000000    0.000000    -17.752851    -13.949732    -15.403297    13.340789    30.402258    -15.898145    12.571152    5.048334    -19.813419    0.000000    0.000000    0.000000    
16.569445    154.960693    -109.095894    -0.656329    -9.228287    45.687489    -3.411614    1.945061    -1.826289    -2.731482    2.669140    -0.564976    2.145831    8.416150    -19.519447    19.550625    -2.043998    -17.461609    3.563533    8.335217    -18.044788    -24.338818    10.124271    -50.826553    13.259333    -34.408726    -56.689938    -1.663098    -28.029049    -18.532570    -0.883414    6.053412    -5.589635    32.453640    -12.699938    50.384209    -26.803814    -15.300844    64.685509    -13.083156    -2.411890    36.611595    19.630775    -6.396162    -2.207170    -16.046944    40.533112    -16.852634    8.105278    -27.457521    43.330555    0.000000    0.000000    0.000000    -17.739531    -13.931289    -15.429288    13.320316    30.377731    -15.885509    12.563061    5.063471    -19.787947    0.000000    0.000000    0.000000    
16.586220    154.970383    -109.083618    -0.657052    -9.234038    45.677536    -3.415643    1.950382    -1.838590    -2.718393    2.663231    -0.569570    2.139187    8.403799    -19.517294    19.547207    -2.024056    -17.463009    3.591362    8.351302    -18.091572    -24.324530    10.369510    -51.094219    12.697775    -34.068253    -57.657001    -1.644951    -27.817930    -18.400471    -0.884027    6.054088    -5.586271    32.471081    -12.697545    50.402237    -26.778976    -15.275403    64.701103    -13.080090    -2.392663    36.582771    19.625511    -6.372304    -2.228445    -16.043068    40.508808    -16.826838    8.089071    -27.460110    43.323994    0.000000    0.000000    0.000000    -17.734041    -13.908269    -15.446189    13.317817    30.349077    -15.891587    12.538277    5.088402    -19.763975    0.000000    0.000000    0.000000    
16.603985    154.977234    -109.073975    -0.658595    -9.233995    45.659138    -3.422033    1.951481    -1.849317    -2.712613    2.657622    -0.573501    2.132190    8.413040    -19.507984    19.574726    -2.036608    -17.446039    3.633806    8.369506    -18.133751    -24.295187    10.673259    -51.382572    12.155613    -33.832584    -58.620323    -1.702496    -27.708782    -18.276533    -0.876102    6.068228    -5.577766    32.461216    -12.671990    50.418304    -26.790110    -15.296963    64.675766    -13.054211    -2.409701    36.600407    19.620569    -6.347724    -2.246022    -16.053698    40.482002    -16.810802    8.105640    -27.453865    43.345802    0.000000    0.000000    0.000000    -17.732409    -13.901747    -15.454264    13.307083    30.341162    -15.871546    12.553620    5.095673    -19.757965    0.000000    0.000000    0.000000    
16.624271    154.985245    -109.063049    -0.651484    -9.238545    45.647217    -3.431149    1.967682    -1.865019    -2.696116    2.645948    -0.579513    2.117057    8.417187    -19.510160    19.587767    -2.040488    -17.444443    3.666412    8.401570    -18.159203    -24.262909    10.956883    -51.671490    11.318737    -33.578712    -59.844131    -1.022358    -27.818262    -17.842875    -0.884212    6.076101    -5.564738    32.478481    -12.685596    50.429916    -26.760946    -15.265169    64.697563    -13.063163    -2.392366    36.601017    19.609415    -6.313837    -2.267637    -16.045086    40.453491    -16.816303    8.109288    -27.454700    43.364120    0.000000    0.000000    0.000000    -17.734171    -13.878548    -15.469916    13.303509    30.322081    -15.864478    12.549734    5.104221    -19.743992    0.000000    0.000000    0.000000    
